# xmcd CD database file
#
# Track frame offsets:
#	150
#	30685
#	52360
#	77663
#	103759
#	151652
#
# Disc length: 2761 seconds
#
# Revision: 5
# Processed by: cddbd v1.4PL0 Copyright (c) Steve Scherf et al.
# Submitted via: CDex 1.40Release
#
DISCID=440ac706
DTITLE=Johnny Winter - Captured Live!
DYEAR=1976
DGENRE=Blues
TTITLE0=Bony Moronie
TTITLE1=Roll With Me
TTITLE2=Rock and Roll People
TTITLE3=It's All Over Now
TTITLE4=Highway 61 Revisited
TTITLE5=Sweet Papa John
EXTD=YEAR: 1976 ID3G: 0
EXTT0=
EXTT1=
EXTT2=
EXTT3=
EXTT4=
EXTT5=
PLAYORDER=
